# xmcd CD database file
#
# Track frame offsets:
#	150
#	9801
#	21833
#	30425
#	40608
#	51458
#	67540
#	80113
#	91760
#	101198
#	117800
#	124455
#	134646
#
# Disc length: 2032 seconds
#
# Revision: 0
# Processed by: cddbd v1.5.2PL0 Copyright (c) Steve Scherf et al.
# Submitted via: CDex 1.50Beta3
#
DISCID=a207ee0d
DTITLE=The Rusty Augers - Casks of Gold
DYEAR=2008
DGENRE=Country
TTITLE0=Casks of Gold
TTITLE1=Grady
TTITLE2=The Nightshift Part Two
TTITLE3=John Smith
TTITLE4=Helicopters
TTITLE5=Mortal Bliss
TTITLE6=Poison Lizard
TTITLE7=Werewolf Girl
TTITLE8=The Nightshift Part One
TTITLE9=Hurricane Blues
TTITLE10=The Defiant One
TTITLE11=John Malone
TTITLE12=Shardy Pants
EXTD=YEAR: 2008
EXTT0=
EXTT1=
EXTT2=
EXTT3=
EXTT4=
EXTT5=
EXTT6=
EXTT7=
EXTT8=
EXTT9=
EXTT10=
EXTT11=
EXTT12=
PLAYORDER=
